<svg xmlns="http://www.w3.org/2000/svg" viewBox="0 0 15360 256" width="15360" height="256"><g fill="#cdfaff" fill-opacity="0"><path d="M226 64.8h-5V53c0-3.3.1-6 .1-6h4.9v17.8z" stroke-opacity="0"/><path d="M20.8 62v4H3v-4M7 155.8H3.1c-.1 0-.1-2.4-.1-5.4V138h4v17.8zM29 208.4h3.9c.1 0 .1-2.4.1-5.4v-12.5h-4v17.9zM234.2 188v2.6H252V188M245 117.4h7V105c0-3-.1-5.4-.2-5.4H245v17.8z"/></g><g fill="#cdfaff"><path d="M482 64.8h-6.312V53c0-3.3.116-6 .136-6H482v17.8z" stroke-opacity="0"/><path d="M276.8 62v4H259v-4M263 155.8h-3.9c-.1 0-.1-2.4-.1-5.4V138h4v17.8z" fill-opacity="0"/><path d="M285 208.4h5.186c.117 0 .132-2.4.132-5.4v-6.288l-.107-6.212H285v17.9z"/><path d="M490.2 188v2.6H508V188M501 117.4h7V105c0-3-.1-5.4-.2-5.4H501v17.8z" fill-opacity="0"/></g><g fill="#cdfaff"><path d="M738 64.8h-10.895V53c0-3.3.17-6 .259-6H738v17.8z" stroke-opacity="0"/><path d="M532.8 62v4H515v-4M519 155.8h-3.9c-.1 0-.1-2.4-.1-5.4V138h4v17.8z" fill-opacity="0"/><path d="M541 208.4h9.679c.178 0 .243-2.4.243-5.4v-6.419l-.481-6.081H541v17.9z"/><path d="M746.2 188v2.6H764V188M757 117.4h7V105c0-3-.1-5.4-.2-5.4H757v17.8z" fill-opacity="0"/></g><g fill="#cdfaff"><path d="M994 64.8h-20.084V53c0-3.3.28-6 .508-6H994v17.8z" stroke-opacity="0"/><path d="M788.8 62v4H771v-4M775 155.8h-3.9c-.1 0-.1-2.4-.1-5.4V138h4v17.8z" fill-opacity="0"/><path d="M797 208.4h18.686c.301 0 .467-2.4.467-5.4v-6.682l-1.232-5.818H797v17.9z"/><path d="M1002.2 188v2.6h17.8V188M1013 117.4h7V105c0-3-.1-5.4-.2-5.4h-6.8v17.8z" fill-opacity="0"/></g><g fill="#cdfaff"><path d="M1250 64.8h-35.709V53c0-3.3.466-6 .931-6H1250v17.8z" stroke-opacity="0"/><path d="M1044.8 62v4H1027v-4M1031 155.8h-3.9c-.1 0-.1-2.4-.1-5.4V138h4v17.8z" fill-opacity="0"/><path d="M1053 208.4h34.004c.508 0 .846-2.4.846-5.4v-7.13l-2.507-5.37H1053v17.9z"/><path d="M1258.2 188v2.6h17.8V188M1269 117.4h7V105c0-3-.1-5.4-.2-5.4h-6.8v17.8z" fill-opacity="0"/></g><g fill="#cdfaff"><path d="M1506 64.8h-59.23V53c0-3.3.746-6 1.567-6H1506v17.8z" stroke-opacity="0"/><path d="M1300.8 62v4H1283v-4M1287 155.8h-3.9c-.1 0-.1-2.4-.1-5.4V138h4v17.8z" fill-opacity="0"/><path d="M1309 208.4h57.061c.821 0 1.418-2.4 1.418-5.4v-7.805l-4.428-4.695H1309v17.9z"/><path d="M1514.2 188v2.6h17.8V188M1525 117.4h7V105c0-3-.1-5.4-.2-5.4h-6.8v17.8z" fill-opacity="0"/></g><g fill="#cdfaff"><path d="M1762 64.8h-88.662V53c0-3.3 1.097-6 2.364-6H1762v17.8z" stroke-opacity="0"/><path d="M1556.8 62v4H1539v-4M1543 155.8h-3.9c-.1 0-.1-2.4-.1-5.4V138h4v17.8z" fill-opacity="0"/><path d="M1565 208.4h85.912c1.213 0 2.134-2.4 2.134-5.4v-8.649l-6.831-3.851H1565v17.9z"/><path d="M1770.2 188v2.6h17.8V188M1781 117.4h7V105c0-3-.1-5.4-.2-5.4h-6.8v17.8z" fill-opacity="0"/></g><g fill="#cdfaff"><path d="M2018 64.8h-117.786V53c0-3.3 1.445-6 3.153-6H2018v17.8z" stroke-opacity="0"/><path d="M1812.8 62v4H1795v-4M1799 155.8h-3.9c-.1 0-.1-2.4-.1-5.4V138h4v17.8z" fill-opacity="0"/><path d="M1821 208.4h114.461c1.601 0 2.842-2.4 2.842-5.4v-9.484l-9.209-3.016H1821v17.9z"/><path d="M2026.2 188v2.6h17.8V188M2037 117.4h7V105c0-3-.1-5.4-.2-5.4h-6.8v17.8z" fill-opacity="0"/></g><g fill="#cdfaff"><path d="M2274 64.8h-142.265V53c0-3.3 1.737-6 3.815-6H2274v17.8z" stroke-opacity="0"/><path d="M2068.8 62v4H2051v-4M2055 155.8h-3.9c-.1 0-.1-2.4-.1-5.4V138h4v17.8z" fill-opacity="0"/><path d="M2077 208.4h138.457c1.926 0 3.437-2.4 3.437-5.4v-10.185l-11.208-2.315H2077v17.9z"/><path d="M2282.2 188v2.6h17.8V188M2293 117.4h7V105c0-3-.1-5.4-.2-5.4h-6.8v17.8z" fill-opacity="0"/></g><g fill="#cdfaff"><path d="M2530 64.8h-161.625V53c0-3.3 1.968-6 4.339-6H2530v17.8z" stroke-opacity="0"/><path d="M2324.8 62v4H2307v-4M2311 155.8h-3.9c-.1 0-.1-2.4-.1-5.4V138h4v17.8z" fill-opacity="0"/><path d="M2333 208.4h157.436c2.183 0 3.908-2.4 3.908-5.4v-10.74l-12.789-1.76H2333v17.9z"/><path d="M2538.2 188v2.6h17.8V188M2549 117.4h7V105c0-3-.1-5.4-.2-5.4h-6.8v17.8z" fill-opacity="0"/></g><g fill="#cdfaff"><path d="M2786 64.8h-176.769V53c0-3.3 2.149-6 4.749-6H2786v17.8z" stroke-opacity="0"/><path d="M2580.8 62v4H2563v-4M2567 155.8h-3.9c-.1 0-.1-2.4-.1-5.4V138h4v17.8z" fill-opacity="0"/><path d="M2589 208.4h172.281c2.385 0 4.276-2.4 4.276-5.4v-11.175l-14.025-1.325H2589v17.9z"/><path d="M2794.2 188v2.6h17.8V188M2805 117.4h7V105c0-3-.1-5.4-.2-5.4h-6.8v17.8z" fill-opacity="0"/></g><g fill="#cdfaff"><path d="M3042 64.8h-188.64V53c0-3.3 2.29-6 5.07-6H3042v17.8z" stroke-opacity="0"/><path d="M2836.8 62v4H2819v-4M2823 155.8h-3.9c-.1 0-.1-2.4-.1-5.4V138h4v17.8z" fill-opacity="0"/><path d="M2845 208.4h183.918c2.542 0 4.564-2.4 4.564-5.4v-11.515l-14.994-.985H2845v17.9z"/><path d="M3050.2 188v2.6h17.8V188M3061 117.4h7V105c0-3-.1-5.4-.2-5.4h-6.8v17.8z" fill-opacity="0"/></g><g fill="#cdfaff"><path d="M3298 64.8h-197.966V53c0-3.3 2.401-6 5.322-6H3298v17.8z" stroke-opacity="0"/><path d="M3092.8 62v4H3075v-4M3079 155.8h-3.9c-.1 0-.1-2.4-.1-5.4V138h4v17.8z" fill-opacity="0"/><path d="M3101 208.4h193.06c2.667 0 4.791-2.4 4.791-5.4v-11.782l-15.756-.718H3101v17.9z"/><path d="M3306.2 188v2.6h17.8V188M3317 117.4h7V105c0-3-.1-5.4-.2-5.4h-6.8v17.8z" fill-opacity="0"/></g><g fill="#cdfaff"><path d="M3554 64.8h-205.277V53c0-3.3 2.488-6 5.52-6H3554v17.8z" stroke-opacity="0"/><path d="M3348.8 62v4H3331v-4M3335 155.8h-3.9c-.1 0-.1-2.4-.1-5.4V138h4v17.8z" fill-opacity="0"/><path d="M3357 208.4h200.227c2.764 0 4.969-2.4 4.969-5.4v-11.992l-16.353-.508H3357v17.9z"/><path d="M3562.2 188v2.6h17.8V188M3573 117.4h7V105c0-3-.1-5.4-.2-5.4h-6.8v17.8z" fill-opacity="0"/></g><g fill="#cdfaff"><path d="M3810 64.8h-210.959V53c0-3.3 2.556-6 5.674-6H3810v17.8z" stroke-opacity="0"/><path d="M3604.8 62v4H3587v-4M3591 155.8h-3.9c-.1 0-.1-2.4-.1-5.4V138h4v17.8z" fill-opacity="0"/><path d="M3613 208.4h205.797c2.84 0 5.107-2.4 5.107-5.4v-12.155l-16.817-.345H3613v17.9z"/><path d="M3818.2 188v2.6h17.8V188M3829 117.4h7V105c0-3-.1-5.4-.2-5.4h-6.8v17.8z" fill-opacity="0"/></g><g fill="#cdfaff"><path d="M4066 64.8h-215.298V53c0-3.3 2.608-6 5.792-6H4066v17.8z" stroke-opacity="0"/><path d="M3860.8 62v4H3843v-4M3847 155.8h-3.9c-.1 0-.1-2.4-.1-5.4V138h4v17.8z" fill-opacity="0"/><path d="M3869 208.4h210.05c2.897 0 5.212-2.4 5.212-5.4v-12.279l-17.171-.221H3869v17.9z"/><path d="M4074.2 188v2.6h17.8V188M4085 117.4h7V105c0-3-.1-5.4-.2-5.4h-6.8v17.8z" fill-opacity="0"/></g><g fill="#cdfaff"><path d="M4322 64.8h-218.51V53c0-3.3 2.647-6 5.879-6H4322v17.8z" stroke-opacity="0"/><path d="M4116.8 62v4H4099v-4M4103 155.8h-3.9c-.1 0-.1-2.4-.1-5.4V138h4v17.8z" fill-opacity="0"/><path d="M4125 208.4h213.198c2.94 0 5.291-2.4 5.291-5.4v-12.371l-17.433-.129H4125v17.9z"/><path d="M4330.2 188v2.6h17.8V188M4341 117.4h7V105c0-3-.1-5.4-.2-5.4h-6.8v17.8z" fill-opacity="0"/></g><g fill="#cdfaff"><path d="M4578 64.8h-220.762V53c0-3.3 2.673-6 5.939-6H4578v17.8z" stroke-opacity="0"/><path d="M4372.8 62v4H4355v-4M4359 155.8h-3.9c-.1 0-.1-2.4-.1-5.4V138h4v17.8z" fill-opacity="0"/><path d="M4381 208.4h215.406c2.97 0 5.346-2.4 5.346-5.4v-12.436l-17.618-.064H4381v17.9z"/><path d="M4586.2 188v2.6h17.8V188M4597 117.4h7V105c0-3-.1-5.4-.2-5.4h-6.8v17.8z" fill-opacity="0"/></g><g fill="#cdfaff"><path d="M4834 64.8h-222.186V53c0-3.3 2.69-6 5.977-6H4834v17.8z" stroke-opacity="0"/><path d="M4628.8 62v4H4611v-4M4615 155.8h-3.9c-.1 0-.1-2.4-.1-5.4V138h4v17.8z" fill-opacity="0"/><path d="M4637 208.4h216.803c2.989 0 5.38-2.4 5.38-5.4v-12.477l-17.734-.023H4637v17.9z"/><path d="M4842.2 188v2.6h17.8V188M4853 117.4h7V105c0-3-.1-5.4-.2-5.4h-6.8v17.8z" fill-opacity="0"/></g><g fill="#cdfaff"><path d="M5090 64.8h-222.889V53c0-3.3 2.699-6 5.997-6H5090v17.8z" stroke-opacity="0"/><path d="M4884.8 62v4H4867v-4M4871 155.8h-3.9c-.1 0-.1-2.4-.1-5.4V138h4v17.8z" fill-opacity="0"/><path d="M4893 208.4h217.491c2.999 0 5.397-2.4 5.397-5.4v-12.497l-17.791-.003H4893v17.9z"/><path d="M5098.2 188v2.6h17.8V188M5109 117.4h7V105c0-3-.1-5.4-.2-5.4h-6.8v17.8z" fill-opacity="0"/></g><g fill="#cdfaff"><path d="M5346 64.8h-223V53c0-3.3 2.7-6 6-6h217v17.8z" stroke-opacity="0"/><path d="M5140.8 62v4.062H5123v-2.064l.015-1.998" fill-opacity=".911413"/><path d="M5127 155.8h-3.9c-.1 0-.1-2.4-.1-5.4V138h4v17.8z" fill-opacity="0"/><path d="M5149 208.4h217.6c3 0 5.4-2.4 5.4-5.4v-12.5h-223v17.9z"/><path d="M5354.2 187.937v2.663h17.8v-2.663" fill-opacity=".911413"/><path d="M5365 117.4h7V105c0-3-.1-5.4-.2-5.4h-6.8v17.8z" fill-opacity="0"/></g><g fill="#cdfaff"><path d="M5602 64.8h-223V53c0-3.3 2.7-6 6-6h217v17.8z" stroke-opacity="0"/><path d="M5396.8 62v4.863H5379v-2.887l.213-1.976"/><path d="M5383 155.8h-3.9c-.1 0-.1-2.4-.1-5.4V138h4v17.8z" fill-opacity="0"/><path d="M5405 208.4h217.6c3 0 5.4-2.4 5.4-5.4v-12.5h-223v17.9z"/><path d="M5610.2 187.125v3.475h17.8v-3.475"/><path d="M5621 117.4h7V105c0-3-.1-5.4-.2-5.4h-6.8v17.8z" fill-opacity="0"/></g><g fill="#cdfaff"><path d="M5858 64.8h-223V53c0-3.3 2.7-6 6-6h217v17.8z" stroke-opacity="0"/><path d="M5652.8 62v6.869H5635V63.92l.709-1.92"/><path d="M5639 155.8h-3.9c-.1 0-.1-2.4-.1-5.4V138h4v17.8z" fill-opacity="0"/><path d="M5661 208.4h217.6c3 0 5.4-2.4 5.4-5.4v-12.5h-223v17.9z"/><path d="M5866.2 185.091v5.509h17.8v-5.509"/><path d="M5877 117.4h7V105c0-3-.1-5.4-.2-5.4h-6.8v17.8z" fill-opacity="0"/></g><g fill="#cdfaff"><path d="M6114 64.8h-223V53c0-3.3 2.7-6 6-6h217v17.8z" stroke-opacity="0"/><path d="M5908.8 62v10.573H5891v-8.756l1.625-1.817"/><path d="M5895 155.8h-3.9c-.1 0-.1-2.4-.1-5.4V138h4v17.8z" fill-opacity="0"/><path d="M5917 208.4h217.6c3 0 5.4-2.4 5.4-5.4v-12.5h-223v17.9z"/><path d="M6122.2 181.335v9.265h17.8v-9.265"/><path d="M6133 117.4h7V105c0-3-.1-5.4-.2-5.4h-6.8v17.8z" fill-opacity="0"/></g><g fill="#cdfaff"><path d="M6370 64.8h-223V53c0-3.3 2.7-6 6-6h217v17.8z" stroke-opacity="0"/><path d="M6164.8 62v16.587H6147V63.65l3.112-1.65"/><path d="M6151 155.8h-3.9c-.1 0-.1-2.4-.1-5.4V138h4v17.8z" fill-opacity="0"/><path d="M6173 208.4h217.6c3 0 5.4-2.4 5.4-5.4v-12.5h-223v17.9z"/><path d="M6378.2 175.238V190.6h17.8v-15.362"/><path d="M6389 117.4h7V105c0-3-.1-5.4-.2-5.4h-6.8v17.8z" fill-opacity="0"/></g><g fill="#cdfaff"><path d="M6626 64.8h-223V53c0-3.3 2.7-6 6-6h217v17.8z" stroke-opacity="0"/><path d="M6420.8 62v25.127H6403V63.413l5.223-1.413"/><path d="M6407 155.8h-3.9c-.1 0-.1-2.4-.1-5.4V138h4v17.8z" fill-opacity="0"/><path d="M6429 208.4h217.6c3 0 5.4-2.4 5.4-5.4v-12.5h-223v17.9z"/><path d="M6634.2 166.58v24.02h17.8v-24.02"/><path d="M6645 117.4h7V105c0-3-.1-5.4-.2-5.4h-6.8v17.8z" fill-opacity="0"/></g><g fill="#cdfaff"><path d="M6882 64.8h-223V53c0-3.3 2.7-6 6-6h217v17.8z" stroke-opacity="0"/><path d="M6676.8 62v34.97H6659V63.14l7.657-1.14"/><path d="M6663 155.8h-3.9c-.1 0-.1-2.4-.1-5.4V138h4v17.8z" fill-opacity="0"/><path d="M6685 208.4h217.6c3 0 5.4-2.4 5.4-5.4v-12.5h-223v17.9z"/><path d="M6890.2 156.599V190.6h17.8v-34.001"/><path d="M6901 117.4h7V105c0-3-.1-5.4-.2-5.4h-6.8v17.8z" fill-opacity="0"/></g><g fill="#cdfaff"><path d="M7138 64.8h-223V53c0-3.3 2.7-6 6-6h217v17.8z" stroke-opacity="0"/><path d="M6932.8 62v44.08H6915V62.887l9.909-.887"/><path d="M6919 155.8h-3.9c-.1 0-.1-2.4-.1-5.4V138h4v17.8z" fill-opacity="0"/><path d="M6941 208.4h217.6c3 0 5.4-2.4 5.4-5.4v-12.5h-223v17.9z"/><path d="M7146.2 147.363V190.6h17.8v-43.237"/><path d="M7157 117.4h7V105c0-3-.1-5.4-.2-5.4h-6.8v17.8z" fill-opacity="0"/></g><g fill="#cdfaff"><path d="M7394 64.8h-223V53c0-3.3 2.7-6 6-6h217v17.8z" stroke-opacity="0"/><path d="M7188.8 62v51.533H7171V62.68l11.751-.68"/><path d="M7175 155.8h-3.9c-.1 0-.1-2.4-.1-5.4V138h4v17.8z" fill-opacity="0"/><path d="M7197 208.4h217.6c3 0 5.4-2.4 5.4-5.4v-12.5h-223v17.9z"/><path d="M7402.2 139.807V190.6h17.8v-50.793"/><path d="M7413 117.4h7V105c0-3-.1-5.4-.2-5.4h-6.8v17.8z" fill-opacity="0"/></g><g fill="#cdfaff"><path d="M7650 64.8h-223V53c0-3.3 2.7-6 6-6h217v17.8z" stroke-opacity="0"/><path d="M7444.8 62v57.401H7427V62.517l13.202-.517"/><path d="M7431 155.8h-3.9c-.1 0-.1-2.4-.1-5.4V138h4v17.8z" fill-opacity="0"/><path d="M7453 208.4h217.6c3 0 5.4-2.4 5.4-5.4v-12.5h-223v17.9z"/><path d="M7658.2 133.857V190.6h17.8v-56.743"/><path d="M7669 117.4h7V105c0-3-.1-5.4-.2-5.4h-6.8v17.8z" fill-opacity="0"/></g><g fill="#cdfaff"><path d="M7906 64.8h-223V53c0-3.3 2.7-6 6-6h217v17.8z" stroke-opacity="0"/><path d="M7700.8 62v62.002H7683V62.389l14.339-.389"/><path d="M7687 155.8h-3.9c-.1 0-.1-2.4-.1-5.4V138h4v17.8z" fill-opacity="0"/><path d="M7709 208.4h217.6c3 0 5.4-2.4 5.4-5.4v-12.5h-223v17.9z"/><path d="M7914.2 129.192V190.6h17.8v-61.408"/><path d="M7925 117.4h7V105c0-3-.1-5.4-.2-5.4h-6.8v17.8z" fill-opacity="0"/></g><g fill="#cdfaff"><path d="M8162 64.8h-223V53c0-3.3 2.7-6 6-6h217v17.8z" stroke-opacity="0"/><path d="M7956.8 62v65.62H7939V62.288l15.234-.288"/><path d="M7943 155.8h-3.9c-.1 0-.1-2.4-.1-5.4V138h4v17.8z" fill-opacity="0"/><path d="M7965 208.4h217.6c3 0 5.4-2.4 5.4-5.4v-12.5h-223v17.9z"/><path d="M8170.2 125.524V190.6h17.8v-65.076"/><path d="M8181 117.4h7V105c0-3-.1-5.4-.2-5.4h-6.8v17.8z" fill-opacity="0"/></g><g fill="#cdfaff"><path d="M8418 64.8h-223V53c0-3.3 2.7-6 6-6h217v17.8z" stroke-opacity="0"/><path d="M8212.8 62v68.469H8195v-68.26l15.938-.209"/><path d="M8199 155.8h-3.9c-.1 0-.1-2.4-.1-5.4V138h4v17.8z" fill-opacity="0"/><path d="M8221 208.4h217.6c3 0 5.4-2.4 5.4-5.4v-12.5h-223v17.9z"/><path d="M8426.2 122.635V190.6h17.8v-67.965"/><path d="M8437 117.4h7V105c0-3-.1-5.4-.2-5.4h-6.8v17.8z" fill-opacity="0"/></g><g fill="#cdfaff"><path d="M8674 64.8h-223V53c0-3.3 2.7-6 6-6h217v17.8z" stroke-opacity="0"/><path d="M8468.8 62v70.704H8451V62.147l16.491-.147"/><path d="M8455 155.8h-3.9c-.1 0-.1-2.4-.1-5.4V138h4v17.8z" fill-opacity="0"/><path d="M8477 208.4h217.6c3 0 5.4-2.4 5.4-5.4v-12.5h-223v17.9z"/><path d="M8682.2 120.37v70.23h17.8v-70.23"/><path d="M8693 117.4h7V105c0-3-.1-5.4-.2-5.4h-6.8v17.8z" fill-opacity="0"/></g><g fill="#cdfaff"><path d="M8930 64.8h-223V53c0-3.3 2.7-6 6-6h217v17.8z" stroke-opacity="0"/><path d="M8724.8 62v72.438H8707V62.099l16.919-.099"/><path d="M8711 155.8h-3.9c-.1 0-.1-2.4-.1-5.4V138h4v17.8z" fill-opacity="0"/><path d="M8733 208.4h217.6c3 0 5.4-2.4 5.4-5.4v-12.5h-223v17.9z"/><path d="M8938.2 118.611V190.6h17.8v-71.989"/><path d="M8949 117.4h7V105c0-3-.1-5.4-.2-5.4h-6.8v17.8z" fill-opacity="0"/></g><g fill="#cdfaff"><path d="M9186 64.8h-223V53c0-3.3 2.7-6 6-6h217v17.8z" stroke-opacity="0"/><path d="M8980.8 62v73.757H8963V62.062l17.245-.062"/><path d="M8967 155.8h-3.9c-.1 0-.1-2.4-.1-5.4V138h4v17.8z" fill-opacity="0"/><path d="M8989 208.4h217.6c3 0 5.4-2.4 5.4-5.4v-12.5h-223v17.9z"/><path d="M9194.2 117.274V190.6h17.8v-73.326"/><path d="M9205 117.4h7V105c0-3-.1-5.4-.2-5.4h-6.8v17.8z" fill-opacity="0"/></g><g fill="#cdfaff"><path d="M9442 64.8h-223V53c0-3.3 2.7-6 6-6h217v17.8z" stroke-opacity="0"/><path d="M9236.8 62v74.725H9219v-74.69l17.485-.035"/><path d="M9223 155.8h-3.9c-.1 0-.1-2.4-.1-5.4V138h4v17.8z" fill-opacity="0"/><path d="M9245 208.4h217.6c3 0 5.4-2.4 5.4-5.4v-12.5h-223v17.9z"/><path d="M9450.2 116.292V190.6h17.8v-74.308"/><path d="M9461 117.4h7V105c0-3-.1-5.4-.2-5.4h-6.8v17.8z" fill-opacity="0"/></g><g fill="#cdfaff"><path d="M9698 64.8h-223V53c0-3.3 2.7-6 6-6h217v17.8z" stroke-opacity="0"/><path d="M9492.8 62v75.394H9475V62.017l17.65-.017"/><path d="M9479 155.8h-3.9c-.1 0-.1-2.4-.1-5.4V138h4v17.8z" fill-opacity="0"/><path d="M9501 208.4h217.6c3 0 5.4-2.4 5.4-5.4v-12.5h-223v17.9z"/><path d="M9706.2 115.614V190.6h17.8v-74.986"/><path d="M9717 117.4h7V105c0-3-.1-5.4-.2-5.4h-6.8v17.8z" fill-opacity="0"/></g><g fill="#cdfaff"><path d="M9954 64.8h-223V53c0-3.3 2.7-6 6-6h217v17.8z" stroke-opacity="0"/><path d="M9748.8 62v75.803H9731V62.005l17.751-.005"/><path d="M9735 155.8h-3.9c-.1 0-.1-2.4-.1-5.4V138h4v17.8z" fill-opacity="0"/><path d="M9757 208.4h217.6c3 0 5.4-2.4 5.4-5.4v-12.5h-223v17.9z"/><path d="M9962.2 115.199V190.6h17.8v-75.401"/><path d="M9973 117.4h7V105c0-3-.1-5.4-.2-5.4h-6.8v17.8z" fill-opacity="0"/></g><g fill="#cdfaff"><path d="M10210 64.8h-223V53c0-3.3 2.7-6 6-6h217v17.8z" stroke-opacity="0"/><path d="M10004.8 62v75.985H9987V62h17.796"/><path d="M9991 155.8h-3.9c-.1 0-.1-2.4-.1-5.4V138h4v17.8z" fill-opacity="0"/><path d="M10013 208.4h217.6c3 0 5.4-2.4 5.4-5.4v-12.5h-223v17.9z"/><path d="M10218.2 115.015V190.6h17.8v-75.585"/><path d="M10229 117.4h7V105c0-3-.1-5.4-.2-5.4h-6.8v17.8z" fill-opacity="0"/></g><g fill="#cdfaff"><path d="M10466 64.8h-223V53c0-3.3 2.7-6 6-6h217v17.8z" stroke-opacity="0"/><path d="M10260.8 62v76h-17.8V62h17.8M10247.003 155.8c-1.3 0-2.601-.001-3.9-.003-.102-.002-.103-2.4-.103-5.397V138h4.029l.432 5.921V155.8h-.458M10269 208.4h217.6c3 0 5.4-2.4 5.4-5.4v-12.5h-223v17.9z"/><path d="M10474.2 115v75.6h17.8V115"/><path d="M10484.545 117.4h7.455V105c0-3-.105-5.4-.211-5.4h-7.244v17.8z"/></g><g fill="#cdfaff"><path d="M10722 64.8h-223V53c0-3.3 2.7-6 6-6h217v17.8z" stroke-opacity="0"/><path d="M10516.8 62v76h-17.8V62h17.8M10503.023 155.8c-1.303 0-2.604-.01-3.899-.026-.114-.016-.124-2.399-.124-5.374V138h4.228l3.39 5.835V155.8h-3.595M10525 208.4h217.6c3 0 5.4-2.4 5.4-5.4v-12.5h-223v17.9z"/><path d="M10730.2 115v75.6h17.8V115"/><path d="M10737.431 117.4H10748V105c0-3-.138-5.4-.286-5.4h-10.283v17.8z"/></g><g fill="#cdfaff"><path d="M10978 64.8h-223V53c0-3.3 2.7-6 6-6h217v17.8z" stroke-opacity="0"/><path d="M10772.8 62v76h-17.8V62h17.8M10759.069 155.8c-1.31 0-2.612-.03-3.896-.078-.143-.048-.173-2.396-.173-5.322V138h4.679l10.1 5.641V155.8h-10.71M10781 208.4h217.6c3 0 5.4-2.4 5.4-5.4v-12.5h-223v17.9z"/><path d="M10986.2 115v75.6h17.8V115"/><path d="M10986.369 117.4H11004V105c0-3-.213-5.4-.456-5.4h-17.175v17.8z"/></g><g fill="#cdfaff"><path d="M11234 64.8h-223V53c0-3.3 2.7-6 6-6h217v17.8z" stroke-opacity="0"/><path d="M11028.8 62v76h-17.8V62h17.8M11015.151 155.8c-1.322 0-2.627-.065-3.892-.17-.194-.105-.259-2.392-.259-5.23V138h5.486l22.102 5.294V155.8h-23.437M11037 208.4h217.6c3 0 5.4-2.4 5.4-5.4v-12.5h-223v17.9z"/><path d="M11242.2 115v75.6h17.8V115"/><path d="M11229.735 117.4H11260V105c0-3-.348-5.4-.76-5.4h-29.505v17.8z"/></g><g fill="#cdfaff"><path d="M11490 64.8h-223V53c0-3.3 2.7-6 6-6h217v17.8z" stroke-opacity="0"/><path d="M11284.8 62v76h-17.8V62h17.8M11271.281 155.8c-1.341 0-2.651-.12-3.885-.316-.276-.195-.396-2.385-.396-5.084V138h6.765l41.118 4.744V155.8h-43.602M11293 208.4h217.6c3 0 5.4-2.4 5.4-5.4v-12.5h-223v17.9z"/><path d="M11498.2 115v75.6h17.8V115"/><path d="M11465.719 117.4H11516V105c0-3-.561-5.4-1.242-5.4h-49.039v17.8z"/></g><g fill="#cdfaff"><path d="M11746 64.8h-223V53c0-3.3 2.7-6 6-6h217v17.8z" stroke-opacity="0"/><path d="M11540.8 62v76h-17.8V62h17.8M11527.457 155.8c-1.365 0-2.681-.196-3.875-.514-.386-.319-.582-2.376-.582-4.886V138h8.508l67.027 3.995V155.8h-71.078M11549 208.4h217.6c3 0 5.4-2.4 5.4-5.4v-12.5h-223v17.9z"/><path d="M11754.2 115v75.6h17.8V115"/><path d="M11694.445 117.4H11772V105c0-3-.851-5.4-1.899-5.4h-75.656v17.8z"/></g><g fill="#cdfaff"><path d="M12002 64.8h-223V53c0-3.3 2.7-6 6-6h217v17.8z" stroke-opacity="0"/><path d="M11796.8 62v76h-17.8V62h17.8M11783.65 155.8c-1.393 0-2.716-.278-3.866-.731-.506-.452-.784-2.365-.784-4.669V138h10.403l95.209 3.18v14.62h-100.962M11805 208.4h217.6c3 0 5.4-2.4 5.4-5.4v-12.5h-223v17.9z"/><path d="M12010.2 115v75.6h17.8V115"/><path d="M11920.78 117.4H12028V105c0-3-1.167-5.4-2.613-5.4h-104.607v17.8z"/></g><g fill="#cdfaff"><path d="M12258 64.8h-223V53c0-3.3 2.7-6 6-6h217v17.8z" stroke-opacity="0"/><path d="M12052.8 62v76h-17.8V62h17.8M12039.82 155.8c-1.417 0-2.746-.351-3.856-.923-.613-.571-.964-2.356-.964-4.477V138h12.084l120.205 2.458V155.8h-127.469M12061 208.4h217.6c3 0 5.4-2.4 5.4-5.4v-12.5h-223v17.9z"/><path d="M12266.2 115v75.6h17.8V115"/><path d="M12150.468 117.4H12284V105c0-3-1.447-5.4-3.246-5.4h-130.286v17.8z"/></g><g fill="#cdfaff"><path d="M12514 64.8h-223V53c0-3.3 2.7-6 6-6h217v17.8z" stroke-opacity="0"/><path d="M12308.8 62v76h-17.8V62h17.8M12295.957 155.8c-1.436 0-2.771-.41-3.848-1.077-.699-.667-1.109-2.349-1.109-4.323V138h13.436l140.309 1.876V155.8h-148.788M12317 208.4h217.6c3 0 5.4-2.4 5.4-5.4v-12.5h-223v17.9z"/><path d="M12522.2 115v75.6h17.8V115"/><path d="M12385.307 117.4H12540V105c0-3-1.673-5.4-3.756-5.4h-150.937v17.8z"/></g><g fill="#cdfaff"><path d="M12770 64.8h-223V53c0-3.3 2.7-6 6-6h217v17.8z" stroke-opacity="0"/><path d="M12564.8 62v76h-17.8V62h17.8M12552.065 155.8c-1.452 0-2.79-.456-3.843-1.198-.766-.741-1.222-2.343-1.222-4.202V138h14.496l156.071 1.421V155.8h-165.502M12573 208.4h217.6c3 0 5.4-2.4 5.4-5.4v-12.5h-223v17.9z"/><path d="M12778.2 115v75.6h17.8V115"/><path d="M12624.714 117.4H12796V105c0-3-1.849-5.4-4.155-5.4h-167.131v17.8z"/></g><g fill="#cdfaff"><path d="M13026 64.8h-223V53c0-3.3 2.7-6 6-6h217v17.8z" stroke-opacity="0"/><path d="M12820.8 62v76h-17.8V62h17.8M12808.149 155.8c-1.464 0-2.805-.492-3.838-1.293-.819-.8-1.311-2.338-1.311-4.107V138h15.326l168.42 1.063V155.8h-178.597M12829 208.4h217.6c3 0 5.4-2.4 5.4-5.4v-12.5h-223v17.9z"/><path d="M13034.2 115v75.6h17.8V115"/><path d="M12867.716 117.4H13052V105c0-3-1.988-5.4-4.468-5.4h-179.816v17.8z"/></g><g fill="#cdfaff"><path d="M13282 64.8h-223V53c0-3.3 2.7-6 6-6h217v17.8z" stroke-opacity="0"/><path d="M13076.8 62v76h-17.8V62h17.8M13064.215 155.8c-1.473 0-2.817-.521-3.835-1.367-.859-.847-1.38-2.335-1.38-4.033V138h15.979l178.123.783V155.8h-188.887M13085 208.4h217.6c3 0 5.4-2.4 5.4-5.4v-12.5h-223v17.9z"/><path d="M13290.2 115v75.6h17.8V115"/><path d="M13113.502 117.4H13308V105c0-3-2.097-5.4-4.714-5.4h-189.784v17.8z"/></g><g fill="#cdfaff"><path d="M13538 64.8h-223V53c0-3.3 2.7-6 6-6h217v17.8z" stroke-opacity="0"/><path d="M13332.8 62v76h-17.8V62h17.8M13320.267 155.8c-1.481 0-2.826-.543-3.832-1.426-.892-.882-1.435-2.332-1.435-3.974V138h16.492l185.747.562V155.8h-196.972M13341 208.4h217.6c3 0 5.4-2.4 5.4-5.4v-12.5h-223v17.9z"/><path d="M13546.2 115v75.6h17.8V115"/><path d="M13361.476 117.4H13564V105c0-3-2.182-5.4-4.907-5.4h-197.617v17.8z"/></g><g fill="#cdfaff"><path d="M13794 64.8h-223V53c0-3.3 2.7-6 6-6h217v17.8z" stroke-opacity="0"/><path d="M13588.8 62v76h-17.8V62h17.8M13576.308 155.8c-1.487 0-2.834-.561-3.83-1.471-.917-.911-1.478-2.33-1.478-3.929V138h16.892l191.706.39v17.41h-203.29M13597 208.4h217.6c3 0 5.4-2.4 5.4-5.4v-12.5h-223v17.9z"/><path d="M13802.2 115v75.6h17.8V115"/><path d="M13611.205 117.4H13820V105c0-3-2.249-5.4-5.058-5.4h-203.737v17.8z"/></g><g fill="#cdfaff"><path d="M14050 64.8h-223V53c0-3.3 2.7-6 6-6h217v17.8z" stroke-opacity="0"/><path d="M13844.8 62v76h-17.8V62h17.8M13832.339 155.8c-1.491 0-2.839-.574-3.828-1.507-.937-.932-1.511-2.328-1.511-3.893V138h17.201l196.3.257V155.8h-208.162M13853 208.4h217.6c3 0 5.4-2.4 5.4-5.4v-12.5h-223v17.9z"/><path d="M14058.2 115v75.6h17.8V115"/><path d="M13862.369 117.4H14076V105c0-3-2.3-5.4-5.174-5.4h-208.457v17.8z"/></g><g fill="#cdfaff"><path d="M14306 64.8h-223V53c0-3.3 2.7-6 6-6h217v17.8z" stroke-opacity="0"/><path d="M14100.8 62v76h-17.8V62h17.8M14088.363 155.8c-1.495 0-2.844-.584-3.827-1.533-.952-.949-1.536-2.327-1.536-3.867V138h17.434l199.757.157V155.8h-211.828M14109 208.4h217.6c3 0 5.4-2.4 5.4-5.4v-12.5h-223v17.9z"/><path d="M14314.2 115v75.6h17.8V115"/><path d="M14114.729 117.4H14332V105c0-3-2.339-5.4-5.262-5.4h-212.009v17.8z"/></g><g fill="#cdfaff"><path d="M14562 64.8h-223V53c0-3.3 2.7-6 6-6h217v17.8z" stroke-opacity="0"/><path d="M14356.8 62v76h-17.8V62h17.8M14344.38 155.8c-1.497 0-2.847-.591-3.826-1.552-.963-.961-1.554-2.326-1.554-3.848V138h17.602l202.253.085V155.8h-214.475M14365 208.4h217.6c3 0 5.4-2.4 5.4-5.4v-12.5h-223v17.9z"/><path d="M14570.2 115v75.6h17.8V115"/><path d="M14368.102 117.4H14588V105c0-3-2.367-5.4-5.325-5.4h-214.573v17.8z"/></g><g fill="#cdfaff"><path d="M14818 64.8h-223V53c0-3.3 2.7-6 6-6h217v17.8z" stroke-opacity="0"/><path d="M14612.8 62v76h-17.8V62h17.8M14600.391 155.8c-1.498 0-2.848-.596-3.825-1.565-.97-.969-1.566-2.326-1.566-3.835V138h17.714l203.923.037V155.8h-216.246M14621 208.4h217.6c3 0 5.4-2.4 5.4-5.4v-12.5h-223v17.9z"/><path d="M14826.2 115v75.6h17.8V115"/><path d="M14622.344 117.4H14844V105c0-3-2.386-5.4-5.368-5.4h-216.288v17.8z"/></g><g fill="#cdfaff"><path d="M15074 64.8h-223V53c0-3.3 2.7-6 6-6h217v17.8z" stroke-opacity="0"/><path d="M14868.8 62v76h-17.8V62h17.8M14856.398 155.8c-1.5 0-2.85-.599-3.825-1.573-.974-.973-1.573-2.325-1.573-3.827V138h17.778l204.876.009V155.8h-217.256M14877 208.4h217.6c3 0 5.4-2.4 5.4-5.4v-12.5h-223v17.9z"/><path d="M15082.2 115v75.6h17.8V115"/><path d="M14877.341 117.4H15100V105c0-3-2.396-5.4-5.392-5.4h-217.267v17.8z"/></g><g fill="#cdfaff"><path d="M15330 64.8h-223V53c0-3.3 2.7-6 6-6h217v17.8z" stroke-opacity="0"/><path d="M15124.8 62v76h-17.8V62h17.8M15112.4 155.8c-1.5 0-2.85-.6-3.825-1.575-.975-.975-1.575-2.325-1.575-3.825V138H15329.999v17.8H15112.4M15133 208.4h217.6c3 0 5.4-2.4 5.4-5.4v-12.5h-223v17.9z"/><path d="M15338.2 115v75.6h17.8V115"/><path d="M15133.001 117.4H15356V105c0-3-2.4-5.4-5.4-5.4h-217.599v17.8z"/></g></svg>