<?xml version="1.0" encoding="utf-8"?>
<!-- Generator: Adobe Illustrator 23.0.2, SVG Export Plug-In . SVG Version: 6.00 Build 0)  -->
<svg version="1.1" id="Layer_1" xmlns="http://www.w3.org/2000/svg" xmlns:xlink="http://www.w3.org/1999/xlink" x="0px" y="0px"
	 viewBox="0 0 77 77" style="enable-background:new 0 0 77 77;" xml:space="preserve">
<style type="text/css">
	.st0{fill:#FFFFFF;}
	.st1{fill:none;stroke:#1F9875;stroke-width:3;stroke-miterlimit:10;}
	.st2{fill:none;stroke:#1F9875;stroke-width:1.5;stroke-miterlimit:10;}
	.st3{fill:#1F9875;}
</style>
<circle class="st0" cx="38.5" cy="38.5" r="38.5"/>
<g>
	<path class="st1" d="M56.5,33.9V27l-18-9l-18,9v6.9c0,12.3,7,23.6,18,29.1l0,0l0,0C49.5,57.5,56.5,46.2,56.5,33.9z"/>
	<path class="st2" d="M50.5,35.6V31l-12-6l-12,6v4.6c0,8.2,4.6,15.7,12,19.4l0,0l0,0C45.9,51.3,50.5,43.8,50.5,35.6z"/>
</g>
<polygon class="st3" points="34.7,41.8 37.9,45 47.5,35.4 44.3,32.2 37.9,38.6 34.7,35.4 31.5,38.6 "/>
</svg>
