<?xml version="1.0" encoding="utf-8"?>
<!-- Generator: Adobe Illustrator 23.0.2, SVG Export Plug-In . SVG Version: 6.00 Build 0)  -->
<svg version="1.1" id="Layer_1" xmlns="http://www.w3.org/2000/svg" xmlns:xlink="http://www.w3.org/1999/xlink" x="0px" y="0px"
	 viewBox="0 0 77 77" style="enable-background:new 0 0 77 77;" xml:space="preserve">
<style type="text/css">
	.st0{fill:#FFFFFF;}
	.st1{fill:none;stroke:#1F9875;stroke-width:2;stroke-miterlimit:10;}
	.st2{fill:none;stroke:#1F9875;stroke-width:3;stroke-miterlimit:10;}
	.st3{fill:#1F9875;}
</style>
<circle class="st0" cx="38.5" cy="38.5" r="38.5"/>
<g>
	<path class="st1" d="M62.2,57.3h-3.6c-2.5,0-4.5-2-4.5-4.5V38.6c0-2.5,2-4.5,4.5-4.5h3.6c2.5,0,4.5,2,4.5,4.5v14.2
		C66.7,55.3,64.7,57.3,62.2,57.3z"/>
	<path class="st2" d="M49.2,56.7l-37.1,0c-0.8,0-1.5-0.5-1.5-1V20.9c0-0.6,0.7-1,1.5-1h52.3c0.8,0,1.5,0.5,1.5,1v8.4"/>
	<line class="st2" x1="20" y1="61.5" x2="56.6" y2="61.5"/>
	<polyline class="st3" points="30.9,30.8 38.3,23.5 38.3,27.2 36.2,29.2 38.3,29.2 38.3,30.8 38.3,32.5 36.2,32.5 38.3,34.5 
		38.3,38.2 30.9,30.8 	"/>
	<polygon class="st3" points="45.6,32.5 34.6,32.5 34.6,29.2 49.2,29.2 49.2,44.3 45.6,40.6 	"/>
	<polyline class="st3" points="45.6,46.7 38.3,39.4 38.3,43 40.3,45.1 38.3,45.1 38.3,46.7 38.3,48.3 40.3,48.3 38.3,50.3 38.3,54 
		45.6,46.7 	"/>
	<polygon class="st3" points="31.3,36.9 27.7,33.3 27.7,48.3 42.3,48.3 42.3,45.1 31.3,45.1 	"/>
	<circle class="st3" cx="60.5" cy="53.7" r="1.5"/>
</g>
</svg>
