<?xml version="1.0" encoding="utf-8"?>
<!-- Generator: Adobe Illustrator 23.0.2, SVG Export Plug-In . SVG Version: 6.00 Build 0)  -->
<svg version="1.1" id="Layer_1" xmlns="http://www.w3.org/2000/svg" xmlns:xlink="http://www.w3.org/1999/xlink" x="0px" y="0px"
	 viewBox="0 0 77 77" style="enable-background:new 0 0 77 77;" xml:space="preserve">
<style type="text/css">
	.st0{fill:#FFFFFF;}
	.st1{fill:none;stroke:#1F9875;stroke-width:3;stroke-miterlimit:10;}
	.st2{fill:none;stroke:#1F9875;stroke-miterlimit:10;}
	.st3{fill:#1F9875;}
</style>
<circle class="st0" cx="38.5" cy="38.5" r="38.5"/>
<path class="st1" d="M39.2,35.3l19.4-15.6c0.1-0.1,0.3,0,0.2,0.2L40.2,63.5c-0.1,0.2-0.3,0.1-0.3,0l-3.4-15.7l22.2-27.8
	c0.1-0.1,0-0.3-0.2-0.2L15,38.3c-0.2,0.1-0.1,0.3,0,0.3L30.8,42l7.3-5.8L39.2,35.3z"/>
<path class="st2" d="M16,54.8"/>
<path class="st3" d="M21.6,58.3l-2.1,2.1c-0.4,0.4-1,0.4-1.4,0h0c-0.4-0.4-0.4-1,0-1.4l2.1-2.1c0.4-0.4,1-0.4,1.4,0h0
	C22,57.3,22,57.9,21.6,58.3z"/>
<path class="st3" d="M20.9,46.3L16,51.2c-0.4,0.4-1,0.4-1.4,0h0c-0.4-0.4-0.4-1,0-1.4l4.9-4.9c0.4-0.4,1-0.4,1.4,0h0
	C21.3,45.2,21.3,45.9,20.9,46.3z"/>
<path class="st3" d="M33.6,59l-4.9,4.9c-0.4,0.4-1,0.4-1.4,0l0,0c-0.4-0.4-0.4-1,0-1.4l4.9-4.9c0.4-0.4,1-0.4,1.4,0l0,0
	C34,58,34,58.6,33.6,59z"/>
<path class="st1" d="M36.5,47.7l-8.8,3.4c-0.1,0.1-0.3-0.1-0.2-0.2l3.1-9.4"/>
</svg>
