<?xml version="1.0" encoding="utf-8"?>
<!-- Generator: Adobe Illustrator 23.0.2, SVG Export Plug-In . SVG Version: 6.00 Build 0)  -->
<svg version="1.1" id="Layer_1" xmlns="http://www.w3.org/2000/svg" xmlns:xlink="http://www.w3.org/1999/xlink" x="0px" y="0px"
	 viewBox="0 0 77 77" style="enable-background:new 0 0 77 77;" xml:space="preserve">
<style type="text/css">
	.st0{fill:#FFFFFF;}
	.st1{fill:none;stroke:#1F9875;stroke-width:3;stroke-miterlimit:10;}
	.st2{fill:none;stroke:#1F9875;stroke-miterlimit:10;}
	.st3{fill:#1F9875;}
</style>
<circle class="st0" cx="38.5" cy="38.5" r="38.5"/>
<path class="st1" d="M41.2,32.3l19.4-15.6c0.1-0.1,0.3,0,0.2,0.2L42.2,60.5c-0.1,0.2-0.3,0.1-0.3,0l-3.4-15.7l22.2-27.8
	c0.1-0.1,0-0.3-0.2-0.2L17,35.3c-0.2,0.1-0.1,0.3,0,0.3L32.8,39l7.3-5.8L41.2,32.3z"/>
<path class="st2" d="M18,51.8"/>
<path class="st3" d="M23.6,55.3l-2.1,2.1c-0.4,0.4-1,0.4-1.4,0h0c-0.4-0.4-0.4-1,0-1.4l2.1-2.1c0.4-0.4,1-0.4,1.4,0h0
	C24,54.3,24,54.9,23.6,55.3z"/>
<path class="st3" d="M22.9,43.3L18,48.2c-0.4,0.4-1,0.4-1.4,0h0c-0.4-0.4-0.4-1,0-1.4l4.9-4.9c0.4-0.4,1-0.4,1.4,0h0
	C23.3,42.2,23.3,42.9,22.9,43.3z"/>
<path class="st3" d="M35.6,56l-4.9,4.9c-0.4,0.4-1,0.4-1.4,0l0,0c-0.4-0.4-0.4-1,0-1.4l4.9-4.9c0.4-0.4,1-0.4,1.4,0l0,0
	C36,55,36,55.6,35.6,56z"/>
<path class="st1" d="M38.5,44.7l-8.8,3.4c-0.1,0.1-0.3-0.1-0.2-0.2l3.1-9.4"/>
</svg>
