<?xml version="1.0" encoding="utf-8"?>
<!-- Generator: Adobe Illustrator 23.0.2, SVG Export Plug-In . SVG Version: 6.00 Build 0)  -->
<svg version="1.1" id="Layer_1" xmlns="http://www.w3.org/2000/svg" xmlns:xlink="http://www.w3.org/1999/xlink" x="0px" y="0px"
	 viewBox="0 0 251.8 164" style="enable-background:new 0 0 251.8 164;" xml:space="preserve">
<style type="text/css">
	.st0{display:none;fill:#222222;}
	.st1{fill:#CDFAFF;}
</style>
<rect x="-1.7" y="-45.9" class="st0" width="256" height="256"/>
<path class="st1" d="M224.3,18.9H1.3V7.1c0-3.3,2.7-6,6-6h217V18.9z"/>
<polyline class="st1" points="1.3,16.1 1.3,95.1 19.1,95.1 19.1,16.1 "/>
<path class="st1" d="M224.3,109.9H6.7c-3,0-5.4-2.4-5.4-5.4V92.1h17.8h205.2V109.9z"/>
<path class="st1" d="M27.3,71.5h223V59.1c0-3-2.4-5.4-5.4-5.4H27.3V71.5z"/>
<polyline class="st1" points="232.5,69.1 232.5,147.1 250.3,147.1 250.3,69.1 "/>
<path class="st1" d="M27.3,162.5h217.6c3,0,5.4-2.4,5.4-5.4v-12.5h-17.8H27.3V162.5z"/>
<path class="st1" d="M110.3,40.1"/>
</svg>
